<svg width="56" height="34" viewBox="0 0 56 34" fill="none" xmlns="http://www.w3.org/2000/svg">
<path d="M31.836 32.006C32.118 31.725 32.354 31.416 32.561 31.094L54.17 9.485C56.277 7.376 56.279 3.957 54.17 1.847C52.061 -0.26 48.643 -0.262 46.532 1.847L27.924 20.457L9.217 1.753C7.108 -0.355 3.69 -0.356 1.58 1.753C0.527 2.809 -0.00200007 4.19 -7.22816e-08 5.571C-0.00200007 6.953 0.527 8.335 1.582 9.387L23.285 31.093C23.492 31.416 23.73 31.724 24.014 32.006C25.092 33.084 26.51 33.603 27.924 33.578C29.336 33.604 30.758 33.084 31.836 32.006Z" fill="#9C4DF4"/>
</svg>
